# xmcd
#
# Track frame offsets: 
#        150
#        13142
#        26925
#        39895
#        51463
#        65175
#        76271
#        88577
#        100609
#        112862
#        123978
#        135057
#        147462
#        158974
#        169302
#        179550
#        191628
#        202016
#        216716
#        226532
#
# Disc length: 3208 seconds
#
# Revision: 0
# Processed by: cddbd v1.5.2PL0 Copyright (c) Steve Scherf et al.
# Submitted via: ExactAudioCopy v0.95a5
#
DISCID=1d0c8614
DTITLE=Parker (Junior) - Best Of
DYEAR=2000
DGENRE=Blues
TTITLE0=I Wanna Ramble
TTITLE1=Dirty Friend Blues
TTITLE2=Can'T Understand
TTITLE3=Mother-In-Law Blues
TTITLE4=Pretty Baby N 2
TTITLE5=Wondering
TTITLE6=Sitting And Thinking
TTITLE7=Next Time You See Me
TTITLE8=Barefoot Rock
TTITLE9=Sometimes
TTITLE10=Five Long Years
TTITLE11=Stranded
TTITLE12=Crying For My Baby
TTITLE13=I'Ll Forget About You
TTITLE14=How Long Can This Go On?
TTITLE15=In The Dark
TTITLE16=Last Night
TTITLE17=These Kinds Of Blues #1
TTITLE18=Man Or Mouse
TTITLE19=Get Away Blues
EXTD=
EXTT0=
EXTT1=
EXTT2=
EXTT3=
EXTT4=
EXTT5=
EXTT6=
EXTT7=
EXTT8=
EXTT9=
EXTT10=
EXTT11=
EXTT12=
EXTT13=
EXTT14=
EXTT15=
EXTT16=
EXTT17=
EXTT18=
EXTT19=
PLAYORDER=
